<svg height="512" viewBox="0 0 59 59" width="512" xmlns="http://www.w3.org/2000/svg"><g id="Page-1" fill="none" fill-rule="evenodd"><g id="029---Dead-Bug" fill-rule="nonzero"><g fill="#603e26"><path id="Shape" d="m30.364 50.3c-.387972.0003129-.741112-.2238102-.906-.575l-4.363-9.3c-.090763-.1936541-.1170495-.4113058-.075-.621l.79-3.95c.0656425-.3546438.31717-.6464624.6582529-.7636957.3410828-.1172333.7188673-.0417149.9886703.1976333.2698029.2393481.389816.6054369.3140768.9580624l-.726 3.627 4.224 9c.1450444.3089133.1225378.6704663-.0596981.9590064-.1822359.2885402-.4990363.4642234-.8403019.4659936z"/><path id="Shape" d="m25.811 52.136c-.3220293-.000936-.6239015-.1568971-.811-.419l-5.809-8.136c-.1498378-.2092446-.2132342-.4682025-.177-.723l1-7c.0507317-.3536929.2863027-.6534536.6179756-.7863651.3316729-.1329116.7090588-.0787815.99.142.2809412.2207814.4227561.5746722.3720244.9283651l-.943 6.6 5.576 7.81c.2174069.3045567.2465896.7050083.0756339 1.0378667-.1709558.3328583-.5134414.5424215-.8876339.5431333z"/><path id="Shape" d="m44.537 48.309c-.3346327.0003846-.6472789-.1666353-.833-.445l-5.536-8.309c-.2997253-.4492453-.1886064-1.0553078.251-1.369l6.735-4.811.9-2.691c.174522-.5246705.7413295-.808522 1.266-.634s.808522.7413295.634 1.266l-1 3c-.0658731.2015442-.1944689.3767428-.367.5l-6.212 4.437 5 7.5c.2046328.3067094.2238907.701139.05011 1.0263244s-.5124026.5283622-.88111.5286756z"/><path id="Shape" d="m48 48c-.4881196-.0006315-.9044606-.3535703-.985-.835l-1-6c-.0690243-.4129585.1265203-.8251983.49-1.033l6.668-3.811.88-2.637c.1128959-.3394023.398285-.5927937.748664-.6647242.350379-.0719304.712517.0485281.95.316.2374831.2674719.3142319.6413219.201336.9807242l-1 3c-.0769968.2336875-.2380909.4304219-.452.552l-6.4 3.654.885 5.313c.0436615.2616405-.0184186.5299086-.1725792.745771-.1541607.2158624-.3877697.361631-.6494208.405229-.0541434.0095203-.1090264.0142054-.164.014z"/></g><path id="Shape" d="m7.276 58.04c-1.76294748.0365439-3.48163969-.5538358-4.85-1.666-1.61-1.396-2.426-3.541-2.426-6.374 0-.5522847.44771525-1 1-1s1 .4477153 1 1c0 2.228.584 3.864 1.736 4.863 1.671 1.449 5.1 1.15 5.122 1.147.5467619-.0781483 1.05335171.3017381 1.1315.8485.0781483.5467619-.3017381 1.0533517-.8485 1.1315-.041.01-1.366.05-1.865.05z" fill="#805333"/><path id="Shape" d="m18 58h-10s0-5 4-5c5 0 3.752 1.56 7.96.783z" fill="#a56a43"/><path id="Shape" d="m18 58h22c6 0 19-6.169 19-12 0-4-15 2-31 2-5 0-10 5-10 10z" fill="#805333"/><path id="Shape" d="m35.207.725 5.429 19c.0863334.3018353.0259107.6266936-.1631755.8773017-.1890863.2506081-.484885.3978728-.7988245.3976983h-12.306c-.3182713.0002989-.6173932.1520833-.8055645.4087704-.1881714.256687-.2429171.5876181-.1474355.8912296l6.585 20.7-23.512-26.334c-.26241542-.2939174-.32777771-.7145311-.16693141-1.0742223.16084631-.3596912.51791471-.5914029.91193141-.5917777h8.2c.3417735-.0000443.6598544-.1746333.8434097-.4629327.1835554-.2882995.2071605-.6503762.0625903-.9600673l-5.675-12.154c-.1445702-.30969115-.1209651-.67176782.0625903-.96006727.1835553-.28829946.5016362-.46288841.8434097-.46293273h19.676c.4462082.00019823.8382928.29599569.961.725z" fill="#f0c419"/><path id="Shape" d="m59 46c0 5.83-13 12-19 12h-22s5-6 16-6c10.79 0 19.66-2.89 24.71-6.78.1961124.2113575.3004023.4918614.29.78z" fill="#cb8252"/></g></g></svg>